name GIL02_fast3.mot
datacolumns 153
datarows 4
range 0.54166663 0.56666660
endheader

                time	           pelvis_tx	           pelvis_ty	           pelvis_tz	         pelvis_tilt	         pelvis_list	     pelvis_rotation	       hip_flexion_r	     hip_adduction_r	      hip_rotation_r	        knee_angle_r	       ankle_angle_r	    subtalar_angle_r	         mtp_angle_r	       hip_flexion_l	     hip_adduction_l	      hip_rotation_l	        knee_angle_l	       ankle_angle_l	    subtalar_angle_l	         mtp_angle_l	    lumbar_extension	      lumbar_bending	     lumbar_rotation	     ground_force_vx	     ground_force_vy	     ground_force_vz	     ground_force_px	     ground_force_py	     ground_force_pz	     ground_force_vx	     ground_force_vy	     ground_force_vz	     ground_force_px	     ground_force_py	     ground_force_pz	     ground_torque_x	     ground_torque_y	     ground_torque_z	     ground_torque_x	     ground_torque_y	     ground_torque_z	    ground_marker_px	    ground_marker_py	    ground_marker_pz	    ground_marker_px	    ground_marker_py	    ground_marker_pz	    ground_marker_px	    ground_marker_py	    ground_marker_pz	    ground_marker_px	    ground_marker_py	    ground_marker_pz	    ground_marker_px	    ground_marker_py	    ground_marker_pz	    ground_marker_px	    ground_marker_py	    ground_marker_pz	    ground_marker_px	    ground_marker_py	    ground_marker_pz	    ground_marker_px	    ground_marker_py	    ground_marker_pz	    ground_marker_px	    ground_marker_py	    ground_marker_pz	    ground_marker_px	    ground_marker_py	    ground_marker_pz	    ground_marker_px	    ground_marker_py	    ground_marker_pz	    ground_marker_px	    ground_marker_py	    ground_marker_pz	    ground_marker_px	    ground_marker_py	    ground_marker_pz	    ground_marker_px	    ground_marker_py	    ground_marker_pz	    ground_marker_px	    ground_marker_py	    ground_marker_pz	    ground_marker_px	    ground_marker_py	    ground_marker_pz	    ground_marker_px	    ground_marker_py	    ground_marker_pz	    ground_marker_px	    ground_marker_py	    ground_marker_pz	    ground_marker_px	    ground_marker_py	    ground_marker_pz	    ground_marker_px	    ground_marker_py	    ground_marker_pz	    ground_marker_px	    ground_marker_py	    ground_marker_pz	    ground_marker_px	    ground_marker_py	    ground_marker_pz	    ground_marker_px	    ground_marker_py	    ground_marker_pz	    ground_marker_px	    ground_marker_py	    ground_marker_pz	    ground_marker_px	    ground_marker_py	    ground_marker_pz	    ground_marker_px	    ground_marker_py	    ground_marker_pz	    ground_marker_px	    ground_marker_py	    ground_marker_pz	    ground_marker_px	    ground_marker_py	    ground_marker_pz	    ground_marker_px	    ground_marker_py	    ground_marker_pz	    ground_marker_px	    ground_marker_py	    ground_marker_pz	    ground_marker_px	    ground_marker_py	    ground_marker_pz	    ground_marker_px	    ground_marker_py	    ground_marker_pz	    ground_marker_px	    ground_marker_py	    ground_marker_pz	    ground_marker_px	    ground_marker_py	    ground_marker_pz	    ground_marker_px	    ground_marker_py	    ground_marker_pz	    ground_marker_px	    ground_marker_py	    ground_marker_pz	    ground_marker_px	    ground_marker_py	    ground_marker_pz	
          0.54166663	          1.23214817	          0.93043685	         -0.17145208	          0.51300049	          7.32493782	         -4.07767296	        -13.24326992	         -9.00117207	          6.15474272	        -30.71398163	        -15.10825157	          0.00000000	          0.00000000	         22.83101654	         10.74014950	          0.26709157	        -15.93271446	         -6.83006287	          0.00000000	          0.00000000	         -6.25735140	         -4.54109430	          1.32406271	         42.68981866	        141.16051476	          3.39086017	          0.81499542	          0.00000000	         -0.15062660	       -127.21563851	        551.16051732	        -35.49029156	          1.41474060	          0.00000000	         -0.17828986	          0.00000000	          0.73463324	          0.00000000	          0.00000000	          0.82598792	          0.00000000	          1.15408373	          0.86785465	         -0.18374676	          1.13983297	          0.83584321	         -0.11485363	          1.15412533	          0.85246038	         -0.26367763	          1.04585481	          0.43983832	         -0.10370692	          1.31067026	          0.46336964	         -0.21250170	          0.76359141	          0.14950065	         -0.12900102	          1.35116112	          0.07117148	         -0.17318884	          1.23214817	          0.93043685	         -0.17145208	          1.22061944	          0.91703266	         -0.05140418	          1.24367702	          0.94384098	         -0.29149997	          1.04386914	          0.96904814	         -0.15347542	          1.05470192	          0.97264755	         -0.23898777	          1.04847765	          0.44086063	         -0.04527468	          1.32060218	          0.45986384	         -0.26953739	          1.04696584	          0.42801642	         -0.15462428	          1.29822338	          0.44638327	         -0.15237813	          0.74888647	          0.16070645	         -0.09352998	          1.33664536	          0.06608054	         -0.20902705	          0.77782869	          0.15871221	         -0.15771079	          1.35361969	          0.08716269	         -0.14671190	          1.03145349	          1.38944376	         -0.16270272	          1.16103411	          1.31969237	         -0.11290713	          1.16810524	          1.32344043	         -0.22221619	          1.14717615	          1.32879412	         -0.16512045	          1.23643434	          1.16901898	         -0.17699802	          1.10810781	          0.52708483	          0.03372200	          1.41980517	          0.59350467	         -0.21614541	          1.13810277	          0.58783859	         -0.02813576	          1.33999944	          0.61106896	         -0.26438916	          1.12504470	          0.50175023	         -0.05058592	          1.34902012	          0.52486527	         -0.25089216	          0.84410894	          0.25116247	          0.00220859	          1.35321558	          0.19817053	         -0.30376783	          0.82153749	          0.22963156	         -0.07419337	          1.33908165	          0.16634558	         -0.22921333	          0.80372387	          0.04131560	         -0.14167218	          1.47518599	          0.03958246	         -0.17852448	
          0.54999995	          1.24637628	          0.93170601	         -0.17215453	          0.28695488	          7.70867443	         -3.80391812	        -11.89063549	         -9.77514648	          5.52401066	        -33.13993073	        -20.27810478	          0.00000000	          0.00000000	         22.47032928	         11.49387646	          1.70820928	        -16.57497215	         -5.36719656	          0.00000000	          0.00000000	         -5.73620796	         -5.20401287	          0.98644751	         11.49884473	         88.28027138	          0.57598919	          0.82911359	          0.00000000	         -0.15556349	       -126.10895671	        576.45970532	        -27.64959909	          1.41244141	          0.00000000	         -0.17818939	          0.00000000	          0.45279581	          0.00000000	          0.00000000	          1.46682153	          0.00000000	          1.16660738	          0.86889446	         -0.18348362	          1.15393245	          0.83699542	         -0.11596298	          1.16779184	          0.85468370	         -0.26470447	          1.06735289	          0.43827486	         -0.10134180	          1.31987131	          0.46412021	         -0.21184641	          0.77939564	          0.15480046	         -0.12504703	          1.35154223	          0.07089926	         -0.17270616	          1.24637628	          0.93170601	         -0.17215453	          1.23523998	          0.91749305	         -0.05263730	          1.25751257	          0.94591898	         -0.29167175	          1.05752707	          0.97089076	         -0.15297897	          1.06869268	          0.97502673	         -0.23844504	          1.06953049	          0.43994489	         -0.04290619	          1.33115256	          0.46082622	         -0.26864326	          1.07073641	          0.42405036	         -0.15217689	          1.30671382	          0.44689462	         -0.15306236	          0.76473892	          0.16674116	         -0.08979650	          1.33765531	          0.06618374	         -0.20884365	          0.79463387	          0.16156264	         -0.15327379	          1.35395479	          0.08695619	         -0.14672488	          1.04472637	          1.39080274	         -0.16411416	          1.17442930	          1.32214546	         -0.11312264	          1.18172753	          1.32532668	         -0.22205341	          1.16063917	          1.33069146	         -0.16566135	          1.25086820	          1.17156839	         -0.17600958	          1.12669873	          0.52717286	          0.03566985	          1.43010283	          0.59358245	         -0.21217713	          1.15661275	          0.58737034	         -0.02673047	          1.35155523	          0.61285764	         -0.26205185	          1.14562857	          0.50102103	         -0.04797372	          1.36025965	          0.52640349	         -0.24921818	          0.86100060	          0.25570872	          0.00558073	          1.35886133	          0.19817142	         -0.30306387	          0.83842289	          0.23365812	         -0.07053372	          1.34124351	          0.16674893	         -0.22995190	          0.80911207	          0.04320733	         -0.14018200	          1.47544575	          0.03947026	         -0.17833376	
          0.55833328	          1.26034498	          0.93312675	         -0.17277381	          0.07991886	          8.10105419	         -3.56126142	        -10.42781925	        -10.55565453	          4.97949028	        -35.67702484	        -24.96445084	          0.00000000	          0.00000000	         21.99314117	         12.17306137	          3.00949454	        -17.01043510	         -4.03843212	          0.00000000	          0.00000000	         -5.13330603	         -6.34957790	          0.72129595	         -5.15555722	         58.74850406	         -2.06393161	          0.84220044	          0.00000000	         -0.15855527	       -122.50540975	        604.40253514	        -18.15306290	          1.40943506	          0.00000000	         -0.17847586	          0.00000000	          0.12321331	          0.00000000	          0.00000000	          1.90521851	          0.00000000	          1.17921209	          0.87009609	         -0.18250705	          1.16776526	          0.83827341	         -0.11704892	          1.18127787	          0.85704470	         -0.26568955	          1.08952117	          0.43681803	         -0.09895780	          1.32834065	          0.46462139	         -0.21170752	          0.79615521	          0.16031639	         -0.12107302	          1.35187745	          0.07069236	         -0.17260410	          1.26034498	          0.93312675	         -0.17277381	          1.24952745	          0.91809934	         -0.05377898	          1.27116251	          0.94815415	         -0.29176864	          1.07107127	          0.97276962	         -0.15232763	          1.08250535	          0.97744560	         -0.23765586	          1.09124768	          0.43911460	         -0.04052840	          1.34082079	          0.46151847	         -0.26826385	          1.09357440	          0.42150840	         -0.14968902	          1.31472647	          0.44706362	         -0.15472081	          0.78168291	          0.17286275	         -0.08595690	          1.33840907	          0.06628097	         -0.20893785	          0.81173182	          0.16420583	         -0.14864892	          1.35420716	          0.08679593	         -0.14699368	          1.05753171	          1.39221096	         -0.16531605	          1.18814588	          1.32510579	         -0.11346825	          1.19554532	          1.32683384	         -0.22202501	          1.17404819	          1.33261347	         -0.16607778	          1.26586449	          1.17429006	         -0.17396845	          1.14575481	          0.52736551	          0.03756189	          1.43997872	          0.59346098	         -0.20895229	          1.17580843	          0.58710951	         -0.02523994	          1.36338735	          0.61413884	         -0.26051646	          1.16622329	          0.50092632	         -0.04544175	          1.37148583	          0.52729702	         -0.24828927	          0.87912303	          0.25995189	          0.00903518	          1.36349142	          0.19798994	         -0.30282867	          0.85701483	          0.23691711	         -0.06656542	          1.34329879	          0.16677830	         -0.23045656	          0.81598425	          0.04596884	         -0.13798635	          1.47562551	          0.03945017	         -0.17831792	
          0.56666660	          1.27403057	          0.93464738	         -0.17327297	         -0.09891796	          8.47748375	         -3.36026502	         -8.87898159	        -11.30386543	          4.55853748	        -38.32012177	        -28.65928268	          0.00000000	          0.00000000	         21.39580917	         12.75212574	          4.07109880	        -17.24915123	         -2.81237793	          0.00000000	          0.00000000	         -4.49649477	         -6.84219170	          0.39314321	        -11.00840966	         40.41028244	         -4.10085310	          0.85014062	          0.00000000	         -0.15822571	       -118.78071609	        625.98057714	         -8.85291114	          1.40644238	          0.00000000	         -0.17894127	          0.00000000	         -0.02665646	          0.00000000	          0.00000000	          2.03392773	          0.00000000	          1.19142520	          0.87091506	         -0.18192910	          1.18131506	          0.83963972	         -0.11803875	          1.19457674	          0.85943812	         -0.26656866	          1.11224437	          0.43553838	         -0.09657416	          1.33609521	          0.46485183	         -0.21202581	          0.81365150	          0.16616181	         -0.11722546	          1.35216999	          0.07050771	         -0.17275436	          1.27403057	          0.93464738	         -0.17327297	          1.26344848	          0.91884923	         -0.05475342	          1.28461266	          0.95044553	         -0.29179251	          1.08451056	          0.97459882	         -0.15157814	          1.09610760	          0.97982067	         -0.23668401	          1.11353874	          0.43842000	         -0.03815952	          1.34952700	          0.46188068	         -0.26837078	          1.11589539	          0.41959456	         -0.14750940	          1.32321727	          0.44685593	         -0.15653434	          0.79949182	          0.17916821	         -0.08214932	          1.33894622	          0.06633852	         -0.20920634	          0.82947129	          0.16819295	         -0.14409746	          1.35467613	          0.08676781	         -0.14751823	          1.07010579	          1.39334047	         -0.16630460	          1.20140946	          1.32721567	         -0.11376623	          1.20927751	          1.32869172	         -0.22239858	          1.18736255	          1.33448064	         -0.16640148	          1.28056812	          1.17683887	         -0.17354228	          1.16525066	          0.52768224	          0.03937119	          1.44950342	          0.59301656	         -0.20666857	          1.19543171	          0.58693999	         -0.02370326	          1.37458265	          0.61480945	         -0.25948963	          1.18682361	          0.50058115	         -0.04324406	          1.38229334	          0.52800411	         -0.24792953	          0.89833206	          0.26399291	          0.01248528	          1.36724496	          0.19761775	         -0.30294615	          0.87725312	          0.23990776	         -0.06272402	          1.34567666	          0.16629203	         -0.23108265	          0.82476825	          0.04959501	         -0.13490470	          1.47575891	          0.03949460	         -0.17842549	
